<mxfile host="65bd71144e">
    <diagram id="g_vNa-cl_svPNy7Fn9iE" name="Page-1">
        <mxGraphModel dx="1976" dy="1580" grid="1" gridSize="10" guides="1" tooltips="1" connect="1" arrows="1" fold="1" page="1" pageScale="1" pageWidth="850" pageHeight="1100" math="0" shadow="0">
            <root>
                <mxCell id="0"/>
                <mxCell id="1" parent="0"/>
                <mxCell id="2" value="end" style="html=1;dashed=0;whitespace=wrap;shape=mxgraph.dfd.start" vertex="1" parent="1">
                    <mxGeometry x="340" y="490" width="80" height="30" as="geometry"/>
                </mxCell>
                <mxCell id="11" style="edgeStyle=none;html=1;entryX=0.5;entryY=0;entryDx=0;entryDy=0;entryPerimeter=0;" edge="1" parent="1" source="3" target="4">
                    <mxGeometry relative="1" as="geometry"/>
                </mxCell>
                <mxCell id="3" value="start" style="html=1;dashed=0;whitespace=wrap;shape=mxgraph.dfd.start" vertex="1" parent="1">
                    <mxGeometry x="340" y="-60" width="80" height="30" as="geometry"/>
                </mxCell>
                <mxCell id="12" style="edgeStyle=none;html=1;entryX=0.5;entryY=0;entryDx=0;entryDy=0;entryPerimeter=0;" edge="1" parent="1" source="4" target="5">
                    <mxGeometry relative="1" as="geometry"/>
                </mxCell>
                <mxCell id="13" value="True" style="edgeLabel;html=1;align=center;verticalAlign=middle;resizable=0;points=[];" vertex="1" connectable="0" parent="12">
                    <mxGeometry x="-0.1852" y="-2" relative="1" as="geometry">
                        <mxPoint as="offset"/>
                    </mxGeometry>
                </mxCell>
                <mxCell id="27" style="edgeStyle=none;html=1;entryX=0;entryY=0.5;entryDx=0;entryDy=0;entryPerimeter=0;" edge="1" parent="1" source="4" target="2">
                    <mxGeometry relative="1" as="geometry">
                        <mxPoint y="540" as="targetPoint"/>
                        <Array as="points">
                            <mxPoint x="-10" y="35"/>
                            <mxPoint y="500"/>
                        </Array>
                    </mxGeometry>
                </mxCell>
                <mxCell id="28" value="False" style="edgeLabel;html=1;align=center;verticalAlign=middle;resizable=0;points=[];" vertex="1" connectable="0" parent="27">
                    <mxGeometry x="-0.072" y="-2" relative="1" as="geometry">
                        <mxPoint as="offset"/>
                    </mxGeometry>
                </mxCell>
                <mxCell id="4" value="&lt;div style=&quot;color: rgb(171, 178, 191); background-color: rgb(40, 44, 52); font-family: MontserratAlternates-Regular, Consolas, &amp;quot;Courier New&amp;quot;, monospace; font-size: 18px; line-height: 24px;&quot;&gt;&lt;span style=&quot;color: #c678dd;&quot;&gt;let&lt;/span&gt; i &lt;span style=&quot;color: #56b6c2;&quot;&gt;=&lt;/span&gt; &lt;span style=&quot;color: #d19a66;&quot;&gt;0&lt;/span&gt;; i &lt;span style=&quot;color: #56b6c2;&quot;&gt;&amp;lt;&lt;/span&gt; arr.&lt;span style=&quot;color: #e06c75;&quot;&gt;length&lt;/span&gt; &lt;span style=&quot;color: #56b6c2;&quot;&gt;-&lt;/span&gt; &lt;span style=&quot;color: #d19a66;&quot;&gt;1&lt;/span&gt;; i&lt;span style=&quot;color: #56b6c2;&quot;&gt;++&lt;/span&gt;&lt;/div&gt;" style="html=1;dashed=0;whitespace=wrap;shape=mxgraph.dfd.loop" vertex="1" parent="1">
                    <mxGeometry x="200" y="20" width="360" height="30" as="geometry"/>
                </mxCell>
                <mxCell id="14" style="edgeStyle=none;html=1;" edge="1" parent="1" source="5" target="6">
                    <mxGeometry relative="1" as="geometry"/>
                </mxCell>
                <mxCell id="15" value="True" style="edgeLabel;html=1;align=center;verticalAlign=middle;resizable=0;points=[];" vertex="1" connectable="0" parent="14">
                    <mxGeometry x="-0.2381" relative="1" as="geometry">
                        <mxPoint as="offset"/>
                    </mxGeometry>
                </mxCell>
                <mxCell id="23" style="edgeStyle=none;html=1;entryX=0.5;entryY=0;entryDx=0;entryDy=0;" edge="1" parent="1" source="5" target="7">
                    <mxGeometry relative="1" as="geometry"/>
                </mxCell>
                <mxCell id="25" value="False" style="edgeLabel;html=1;align=center;verticalAlign=middle;resizable=0;points=[];" vertex="1" connectable="0" parent="23">
                    <mxGeometry x="0.112" y="-2" relative="1" as="geometry">
                        <mxPoint as="offset"/>
                    </mxGeometry>
                </mxCell>
                <mxCell id="5" value="&lt;div style=&quot;color: rgb(171, 178, 191); background-color: rgb(40, 44, 52); font-family: MontserratAlternates-Regular, Consolas, &amp;quot;Courier New&amp;quot;, monospace; font-size: 18px; line-height: 24px;&quot;&gt;&lt;span style=&quot;color: #c678dd;&quot;&gt;let&lt;/span&gt; j &lt;span style=&quot;color: #56b6c2;&quot;&gt;=&lt;/span&gt; i &lt;span style=&quot;color: #56b6c2;&quot;&gt;+&lt;/span&gt; &lt;span style=&quot;color: #d19a66;&quot;&gt;1&lt;/span&gt;; j &lt;span style=&quot;color: #56b6c2;&quot;&gt;&amp;lt;&lt;/span&gt; arr.&lt;span style=&quot;color: #e06c75;&quot;&gt;length&lt;/span&gt;; j&lt;span style=&quot;color: #56b6c2;&quot;&gt;++&lt;/span&gt;&lt;/div&gt;" style="html=1;dashed=0;whitespace=wrap;shape=mxgraph.dfd.loop" vertex="1" parent="1">
                    <mxGeometry x="195" y="140" width="370" height="30" as="geometry"/>
                </mxCell>
                <mxCell id="17" style="edgeStyle=none;html=1;entryX=0.5;entryY=0;entryDx=0;entryDy=0;" edge="1" parent="1" source="6" target="8">
                    <mxGeometry relative="1" as="geometry"/>
                </mxCell>
                <mxCell id="18" value="True" style="edgeLabel;html=1;align=center;verticalAlign=middle;resizable=0;points=[];" vertex="1" connectable="0" parent="17">
                    <mxGeometry x="-0.3483" y="3" relative="1" as="geometry">
                        <mxPoint as="offset"/>
                    </mxGeometry>
                </mxCell>
                <mxCell id="19" style="edgeStyle=none;html=1;entryX=0.999;entryY=0.333;entryDx=0;entryDy=0;entryPerimeter=0;" edge="1" parent="1" source="6" target="5">
                    <mxGeometry relative="1" as="geometry">
                        <mxPoint x="670" y="70" as="targetPoint"/>
                        <Array as="points">
                            <mxPoint x="670" y="270"/>
                            <mxPoint x="670" y="150"/>
                        </Array>
                    </mxGeometry>
                </mxCell>
                <mxCell id="6" value="&lt;div style=&quot;color: rgb(171, 178, 191); background-color: rgb(40, 44, 52); font-family: MontserratAlternates-Regular, Consolas, &amp;quot;Courier New&amp;quot;, monospace; font-size: 18px; line-height: 24px;&quot;&gt;arr[j] &lt;span style=&quot;color: #56b6c2;&quot;&gt;&amp;lt;&lt;/span&gt; arr[minIndex]&lt;/div&gt;" style="shape=hexagon;perimeter=hexagonPerimeter2;whiteSpace=wrap;html=1;size=0.25" vertex="1" parent="1">
                    <mxGeometry x="260" y="240" width="240" height="60" as="geometry"/>
                </mxCell>
                <mxCell id="26" style="edgeStyle=none;html=1;entryX=1.002;entryY=0.461;entryDx=0;entryDy=0;entryPerimeter=0;" edge="1" parent="1" source="7" target="4">
                    <mxGeometry relative="1" as="geometry">
                        <mxPoint x="780" y="-20" as="targetPoint"/>
                        <Array as="points">
                            <mxPoint x="780" y="30"/>
                        </Array>
                    </mxGeometry>
                </mxCell>
                <mxCell id="7" value="&lt;div style=&quot;color: rgb(171, 178, 191); background-color: rgb(40, 44, 52); font-family: MontserratAlternates-Regular, Consolas, &amp;quot;Courier New&amp;quot;, monospace; font-size: 18px; line-height: 24px;&quot;&gt;&amp;nbsp;[arr[i], arr[minIndex]] &lt;span style=&quot;color: #56b6c2;&quot;&gt;=&lt;/span&gt; [arr[minIndex], arr[i]];&lt;/div&gt;" style="html=1;dashed=0;whitespace=wrap;" vertex="1" parent="1">
                    <mxGeometry x="520" y="420" width="510" height="30" as="geometry"/>
                </mxCell>
                <mxCell id="22" style="edgeStyle=none;html=1;" edge="1" parent="1" source="8" target="5">
                    <mxGeometry relative="1" as="geometry">
                        <mxPoint x="90" y="80" as="targetPoint"/>
                        <Array as="points">
                            <mxPoint x="90" y="405"/>
                            <mxPoint x="90" y="160"/>
                        </Array>
                    </mxGeometry>
                </mxCell>
                <mxCell id="8" value="&lt;div style=&quot;color: rgb(171, 178, 191); background-color: rgb(40, 44, 52); font-family: MontserratAlternates-Regular, Consolas, &amp;quot;Courier New&amp;quot;, monospace; font-size: 18px; line-height: 24px;&quot;&gt;minIndex &lt;span style=&quot;color: #56b6c2;&quot;&gt;=&lt;/span&gt; j;&lt;/div&gt;" style="html=1;dashed=0;whitespace=wrap;" vertex="1" parent="1">
                    <mxGeometry x="300" y="380" width="160" height="50" as="geometry"/>
                </mxCell>
                <mxCell id="10" value="&lt;div style=&quot;color: rgb(171, 178, 191); background-color: rgb(40, 44, 52); font-family: MontserratAlternates-Regular, Consolas, &amp;quot;Courier New&amp;quot;, monospace; font-size: 18px; line-height: 24px;&quot;&gt;minIndex &lt;span style=&quot;color: #56b6c2;&quot;&gt;=&lt;/span&gt; i;&lt;/div&gt;" style="html=1;dashed=0;whitespace=wrap;" vertex="1" parent="1">
                    <mxGeometry x="690" y="-80" width="140" height="30" as="geometry"/>
                </mxCell>
                <mxCell id="20" value="False" style="text;html=1;align=center;verticalAlign=middle;resizable=0;points=[];autosize=1;strokeColor=none;fillColor=none;" vertex="1" parent="1">
                    <mxGeometry x="655" y="185" width="50" height="30" as="geometry"/>
                </mxCell>
            </root>
        </mxGraphModel>
    </diagram>
</mxfile>